<?xml version="1.0" standalone="no"?>
<!DOCTYPE svg PUBLIC "-//W3C//DTD SVG 20010904//EN"
 "http://www.w3.org/TR/2001/REC-SVG-20010904/DTD/svg10.dtd">
<svg version="1.0" xmlns="http://www.w3.org/2000/svg"
 width="512.000000pt" height="512.000000pt" viewBox="0 0 512.000000 512.000000"
 preserveAspectRatio="xMidYMid meet">

<g transform="translate(0.000000,512.000000) scale(0.100000,-0.100000)"
fill="#000000" stroke="none">
<path d="M3000 5042 c-108 -136 -236 -206 -635 -348 -277 -98 -437 -168 -560
-244 -257 -158 -475 -400 -620 -689 l-53 -106 21 -40 c42 -81 33 -265 -24
-475 -32 -116 -100 -324 -110 -334 -18 -20 -164 109 -240 213 l-32 43 29 -15
c16 -8 50 -35 76 -59 27 -24 48 -43 48 -41 0 15 -47 91 -76 123 -45 50 -91 78
-162 100 l-57 18 69 21 c37 11 76 21 86 21 11 0 22 5 26 12 9 14 -126 3 -191
-16 -25 -8 -45 -12 -45 -10 0 2 30 21 68 42 87 52 200 99 287 122 39 11 60 19
48 19 -66 2 -285 -87 -405 -164 -91 -59 -65 -27 40 48 75 54 186 116 267 150
22 9 29 14 15 11 -42 -9 -206 -91 -271 -135 -34 -23 -91 -66 -126 -96 -70 -60
-81 -58 -27 5 19 23 31 42 26 42 -23 0 -97 -68 -119 -109 -13 -24 -23 -38 -23
-30 1 24 39 99 72 141 40 51 10 37 -43 -19 -48 -50 -76 -93 -84 -126 -4 -15
-11 -27 -16 -27 -11 0 -11 47 0 112 10 62 -1 53 -25 -19 -26 -80 -24 -185 3
-238 17 -33 20 -52 16 -107 -7 -81 -1 -107 33 -147 32 -39 42 -39 36 -2 -7 49
35 128 82 156 55 32 110 51 173 60 l52 7 59 -80 c70 -95 152 -234 182 -312 12
-30 36 -74 54 -96 97 -126 306 -250 521 -309 70 -19 80 -25 80 -45 0 -19 -13
-27 -86 -54 l-86 -33 -47 45 c-46 43 -49 44 -97 38 -66 -9 -81 -15 -77 -35 2
-12 17 -17 54 -19 44 -3 56 -8 88 -41 59 -61 73 -150 31 -205 -50 -65 -18 -77
53 -19 l44 36 -6 59 c-4 32 -5 58 -3 58 35 0 224 33 234 41 7 6 20 35 30 65 9
30 19 54 23 54 7 0 80 -123 80 -134 0 -13 -112 -146 -123 -146 -6 0 -36 5 -67
12 l-57 11 -47 -38 c-25 -22 -46 -45 -46 -52 0 -25 22 -24 62 2 l41 27 59 -18
c47 -14 68 -27 99 -63 37 -44 38 -48 32 -98 -5 -49 -4 -53 15 -53 16 0 24 13
40 60 l20 59 -35 46 c-19 26 -33 48 -31 49 74 56 174 142 179 154 3 8 -3 56
-12 106 -23 115 -23 116 -1 116 9 0 41 11 71 25 30 14 56 24 58 22 2 -2 15
-49 29 -103 20 -77 27 -132 31 -249 6 -171 -8 -275 -57 -427 -47 -150 -70
-258 -70 -338 0 -94 20 -137 74 -164 35 -17 46 -18 95 -8 30 7 60 17 65 23 8
7 3 8 -19 2 -57 -16 -133 -10 -155 12 -54 55 -42 181 40 425 33 96 67 209 76
250 21 91 24 356 6 444 -7 33 -10 62 -7 64 12 12 79 -160 97 -246 15 -76 18
-127 16 -275 -3 -173 -2 -185 21 -234 24 -53 90 -124 136 -145 14 -6 25 -14
25 -17 0 -29 -70 -270 -119 -410 -76 -216 -95 -306 -89 -420 9 -179 102 -289
273 -320 108 -20 239 -11 233 15 -2 11 -30 15 -113 18 -128 4 -184 21 -244 73
-70 60 -86 101 -86 223 0 123 13 169 110 415 59 148 115 319 115 351 0 22 16
25 69 12 48 -11 51 -13 51 -43 0 -18 -11 -58 -25 -90 -89 -201 -90 -404 -3
-568 36 -68 117 -162 128 -150 9 9 40 268 40 333 l0 42 41 -37 c54 -49 264
-150 364 -176 100 -25 260 -28 359 -5 77 18 212 78 280 125 92 64 257 223 244
237 -3 2 -45 -14 -94 -37 -235 -109 -475 -190 -622 -209 -154 -20 -349 34
-463 129 -47 39 -100 120 -127 192 -19 53 -48 216 -39 225 2 2 56 -9 120 -25
196 -50 316 -121 385 -231 60 -94 64 -98 30 -30 -78 153 -216 240 -495 310
l-42 11 5 52 c3 28 12 94 21 145 14 90 16 93 31 71 9 -13 18 -52 21 -88 6 -64
6 -65 18 -36 37 90 38 171 3 270 -11 30 -20 93 -23 156 -12 221 -81 379 -241
548 -73 77 -61 77 42 -2 154 -117 254 -279 288 -466 49 -277 94 -383 213 -502
56 -55 96 -86 151 -112 141 -69 312 -97 496 -81 l99 8 -175 7 c-198 8 -276 25
-395 87 -100 52 -202 155 -248 252 -43 91 -63 166 -77 292 -6 53 -15 111 -20
129 -5 18 -8 34 -7 36 2 1 30 -48 62 -110 101 -191 220 -292 405 -343 98 -27
331 -25 470 5 272 58 617 204 926 390 132 80 138 85 133 99 -2 6 -47 -14 -99
-44 -125 -72 -328 -171 -471 -230 -300 -123 -517 -175 -734 -175 -284 0 -443
94 -565 332 -81 159 -156 264 -265 375 -112 113 -189 171 -327 245 l-93 50 66
-7 c37 -3 82 -3 100 1 l33 7 -35 22 c-129 80 -132 102 -7 60 l100 -33 -17 26
c-36 54 -57 94 -53 98 2 2 22 -2 43 -10 22 -8 55 -14 74 -15 33 0 34 0 16 20
-9 10 -20 39 -22 64 l-5 45 42 -21 c29 -15 69 -23 124 -26 l81 -4 -41 28 c-23
16 -62 47 -88 69 l-46 40 92 1 c51 0 133 4 182 8 l89 8 -56 23 c-31 12 -80 38
-109 56 l-53 34 101 7 c96 6 221 30 254 49 11 6 8 8 -12 9 -34 0 -125 34 -157
59 l-24 18 69 8 c128 13 349 83 419 131 18 13 14 14 -33 14 -54 0 -195 20
-189 27 2 2 37 12 76 23 84 24 212 86 294 143 31 22 56 41 54 43 -1 2 -23 -2
-47 -8 -47 -10 -201 -4 -240 10 -20 7 -18 9 21 21 130 38 321 177 430 313 l30
37 -58 -35 c-61 -36 -176 -75 -277 -93 -87 -16 -98 -13 -36 11 168 64 334 225
465 451 l28 49 -54 -34 c-102 -64 -219 -103 -344 -113 -39 -4 -248 -7 -465 -9
-415 -3 -468 -8 -655 -56 -247 -65 -496 -206 -705 -399 l-87 -80 -5 -84 c-4
-76 -9 -95 -51 -182 -58 -120 -133 -229 -293 -429 -115 -143 -144 -170 -158
-148 -3 5 51 78 120 163 266 327 377 538 344 649 -11 35 -10 35 57 98 352 327
665 467 1134 508 l67 5 51 71 c28 39 49 73 47 75 -2 3 -21 -7 -43 -21 -44 -29
-141 -63 -204 -71 l-44 -6 30 22 c106 80 225 257 293 437 l19 50 -60 -65 c-65
-69 -144 -130 -242 -184 l-60 -34 70 67 c118 111 209 292 250 497 23 112 18
120 -35 53z m-2640 -2061 c0 -10 -7 -24 -15 -31 -20 -17 -31 10 -15 39 12 24
30 19 30 -8z m2029 -835 c181 -145 291 -366 291 -585 0 -38 -11 -135 -25 -215
-14 -80 -25 -159 -25 -176 0 -30 -1 -31 -32 -25 -76 17 -81 21 -74 68 51 314
26 548 -83 772 -27 55 -70 129 -96 164 -52 70 -48 70 44 -3z m-121 -119 c88
-128 137 -252 162 -409 13 -77 10 -391 -3 -404 -10 -10 -66 35 -97 78 -44 61
-54 129 -40 266 21 188 -2 348 -69 497 -36 80 -21 71 47 -28z"/>
<path d="M1028 3483 c7 -3 16 -2 19 1 4 3 -2 6 -13 5 -11 0 -14 -3 -6 -6z"/>
<path d="M978 3473 c7 -3 16 -2 19 1 4 3 -2 6 -13 5 -11 0 -14 -3 -6 -6z"/>
<path d="M915 3460 c-13 -5 -14 -9 -5 -9 8 0 24 4 35 9 13 5 14 9 5 9 -8 0
-24 -4 -35 -9z"/>
<path d="M993 3403 c9 -2 23 -2 30 0 6 3 -1 5 -18 5 -16 0 -22 -2 -12 -5z"/>
<path d="M3898 1103 c7 -3 16 -2 19 1 4 3 -2 6 -13 5 -11 0 -14 -3 -6 -6z"/>
<path d="M3843 1093 c9 -2 23 -2 30 0 6 3 -1 5 -18 5 -16 0 -22 -2 -12 -5z"/>
</g>
</svg>
